<svg width="16" height="16" viewBox="0 0 16 16" fill="none" xmlns="http://www.w3.org/2000/svg">
  <path fill-rule="evenodd" clip-rule="evenodd" d="M8 0C3.582 0 0 3.582 0 8C0 11.538 2.292 14.419 5.472 15.366C5.872 15.439 6 15.183 6 15.002V13.712C3.748 14.106 3.309 12.964 3.309 12.964C2.92 11.895 2.336 11.63 2.336 11.63C1.531 11.164 2.403 11.173 2.403 11.173C3.293 11.234 3.737 12.098 3.737 12.098C4.53 13.524 5.813 13.14 6.346 12.913C6.417 12.367 6.619 11.997 6.857 11.793C5.004 11.57 3.055 10.857 3.055 7.76C3.055 6.878 3.371 6.163 3.908 5.601C3.821 5.389 3.564 4.545 4.01 3.467C4.01 3.467 4.748 3.243 6 4.272C6.66 4.061 7.36 3.963 8.058 3.96C8.756 3.963 9.456 4.061 10.115 4.272C11.367 3.243 12.105 3.467 12.105 3.467C12.551 4.545 12.294 5.389 12.207 5.601C12.744 6.163 13.06 6.878 13.06 7.76C13.06 10.864 11.103 11.566 9.243 11.789C9.536 12.023 9.793 12.532 9.793 13.319V15.002C9.793 15.183 9.921 15.439 10.322 15.366C13.498 14.419 15.793 11.538 15.793 8C15.793 3.582 12.211 0 8 0ZM6.5 12.5V15L10 12.5H6.5Z" stroke="white" fill="none"/>
</svg>

